<?xml version="1.0" encoding="utf-8"?>
<!-- Generator: Adobe Illustrator 25.4.1, SVG Export Plug-In . SVG Version: 6.00 Build 0)  -->
<svg version="1.1" id="Layer_1" xmlns="http://www.w3.org/2000/svg" xmlns:xlink="http://www.w3.org/1999/xlink" x="0px" y="0px"
	 viewBox="0 0 422.2 402.7" style="enable-background:new 0 0 422.2 402.7;" xml:space="preserve">
<path d="M6.5,154.8c3.6-9.3,12.1-9.1,19.9-10.2c28.9-4.3,57.8-8.4,86.7-12.6c8.8-1.3,17.6-2.7,26.4-3.7c3-0.4,4.5-1.7,5.8-4.4
	c17.8-36.2,35.7-72.4,53.5-108.6c2.4-4.8,5.3-8.6,11.1-9c5.9-0.4,9.8,2.6,12.3,7.7c5.7,11.7,11.5,23.3,17.3,35
	c12.4,25.1,24.8,50.2,37.2,75.4c1.1,2.2,2.3,3.4,4.9,3.7c21.2,3,42.3,6.1,63.5,9.2c19.4,2.8,38.9,5.7,58.3,8.5
	c5.7,0.8,9.8,3.4,11.5,9c1.6,5.5-1,9.7-4.8,13.5c-25.5,24.8-50.9,49.6-76.3,74.3c-3.6,3.5-7.1,7.2-10.9,10.6
	c-2.1,1.9-2.7,3.6-2.2,6.6c7.1,40.5,14,81.1,20.9,121.6c0.8,5-0.5,9.3-4.7,12.4c-4.6,3.4-9.4,2.8-14.3,0.2c-22.8-12-45.6-24-68.4-36
	c-13.4-7-26.8-14-40.2-21.2c-2.4-1.3-4.2-1.1-6.5,0.1c-35.9,19-71.9,37.8-107.9,56.8c-3.8,2-7.6,3.2-11.8,1.6
	c-5.8-2.2-8.8-7.7-7.7-14.1c7-40.8,14-81.6,21.1-122.4c0.4-2.6-0.6-3.9-2.2-5.5c-28.2-27.5-56.4-54.9-84.6-82.5
	c-3-2.9-5.4-6.4-8.1-9.7C6.5,159.1,6.5,157,6.5,154.8z"/>
</svg>
